<svg width="154" height="136" viewBox="0 0 154 136" fill="none" xmlns="http://www.w3.org/2000/svg">
<g clip-path="url(#clip0_5734_10524)">
<g clip-path="url(#clip1_5734_10524)">
<path d="M124.52 64.2073L128.53 63.9734C130.894 66.1745 133.995 67.412 137.224 67.4427C140.454 67.4733 143.578 66.2949 145.983 64.139C148.387 61.9832 149.899 59.0058 150.22 55.7922C150.541 52.5786 149.648 49.3612 147.717 46.7723C145.786 44.1835 142.957 42.4105 139.785 41.8019C136.613 41.1933 133.329 41.793 130.577 43.4832C127.825 45.1735 125.805 47.8319 124.913 50.9361C124.022 54.0402 124.324 57.3655 125.76 60.2584L124.52 64.2073Z" fill="white"/>
<path d="M124.521 64.2075C124.521 64.2075 124.543 64.1237 124.592 63.956L124.821 63.2015C125.028 62.5264 125.328 61.5337 125.725 60.2409V60.188L125.765 60.2321L125.708 60.2674C124.745 58.3451 124.276 56.2129 124.344 54.0638C124.363 53.3942 124.437 52.7271 124.565 52.0695C124.709 51.3661 124.905 50.6745 125.152 50.0002C126.304 46.8577 128.636 44.2876 131.651 42.8348C133.34 42.0078 135.189 41.5562 137.069 41.5111C139.069 41.473 141.049 41.902 142.854 42.7642C144.753 43.651 146.404 44.9939 147.659 46.6734C147.813 46.8896 147.976 47.1146 148.131 47.3176L148.541 48.0015L148.744 48.3412L148.916 48.6986C149.026 48.9369 149.141 49.1751 149.256 49.4134C149.37 49.6516 149.437 49.9031 149.529 50.1458C149.627 50.3876 149.709 50.6351 149.776 50.8871C149.921 51.3838 150.033 51.8893 150.112 52.4004C150.435 54.3245 150.316 56.297 149.762 58.1679C149.208 60.0388 148.236 61.7588 146.917 63.1971C144.663 65.6845 141.531 67.1998 138.181 67.424C137.461 67.4728 136.738 67.464 136.019 67.3975C135.354 67.3181 134.694 67.1987 134.042 67.0401C131.964 66.4988 130.055 65.4462 128.488 63.9781H128.514L125.514 64.1325L124.75 64.1722H124.499H124.764L125.536 64.1192L128.51 63.9251C130.075 65.3735 131.977 66.4092 134.042 66.9386C134.691 67.0928 135.348 67.2077 136.01 67.2828C136.723 67.336 137.438 67.336 138.15 67.2828C139.711 67.174 141.24 66.7808 142.66 66.1224C145.21 64.9495 147.304 62.9702 148.619 60.4898C149.934 58.0093 150.396 55.1653 149.935 52.396C149.857 51.8923 149.747 51.3942 149.604 50.9047C149.539 50.6557 149.458 50.4111 149.362 50.1723C149.269 49.9296 149.194 49.6825 149.088 49.4443C148.982 49.206 148.867 48.9766 148.753 48.7427L148.585 48.3897L148.382 48.0544L147.976 47.3794C147.826 47.1632 147.667 46.9381 147.509 46.7396C146.268 45.082 144.639 43.7547 142.765 42.8745C140.975 42.0224 139.012 41.598 137.03 41.6347C135.24 41.6712 133.478 42.0791 131.855 42.8325C130.232 43.586 128.783 44.6686 127.601 46.0116C126.573 47.1793 125.767 48.5251 125.222 49.9826C124.99 50.6722 124.812 51.3788 124.689 52.096C124.56 52.7478 124.483 53.4087 124.459 54.0727C124.382 56.2096 124.837 58.3322 125.783 60.2497L125.889 60.4704L125.725 60.2895H125.783C125.377 61.5646 125.059 62.5485 124.847 63.2147C124.742 63.5457 124.658 63.7972 124.605 63.9736L124.521 64.2075Z" fill="#263238"/>
<path d="M133.371 52.0517H135.207C135.206 51.8421 135.247 51.6344 135.327 51.4409C135.408 51.2474 135.527 51.0722 135.677 50.9256C135.827 50.779 136.004 50.6641 136.2 50.5878C136.395 50.5114 136.603 50.475 136.813 50.481C137.122 50.4699 137.427 50.5553 137.686 50.7252C137.944 50.8952 138.143 51.1413 138.256 51.4296C138.352 51.6711 138.391 51.932 138.368 52.1911C138.345 52.4502 138.261 52.7002 138.123 52.9209C137.81 53.4327 137.126 53.9004 135.891 53.6842V57.8273H137.709V55.4006C138.455 55.1814 139.108 54.7234 139.569 54.0969C140.03 53.4705 140.272 52.7101 140.259 51.9326C140.259 49.2411 137.845 48.619 136.813 48.619C136.023 48.619 133.336 48.8176 133.371 52.0517Z" fill="#333F47"/>
<path d="M137.726 58.6836H135.882V60.4088H137.726V58.6836Z" fill="#333F47"/>
</g>
<path d="M31.2567 49.8871L27.287 49.6557C24.9478 51.8343 21.8783 53.0591 18.6818 53.0895C15.4854 53.1198 12.3932 51.9534 10.013 49.8196C7.6329 47.6858 6.13697 44.7388 5.81931 41.558C5.50166 38.3773 6.38524 35.1927 8.29637 32.6303C10.2075 30.0679 13.008 28.3131 16.1473 27.7107C19.2866 27.1083 22.5377 27.7019 25.2616 29.3748C27.9855 31.0478 29.9851 33.6791 30.8674 36.7515C31.7496 39.824 31.4508 43.1153 30.0296 45.9786L31.2567 49.8871Z" fill="white"/>
<path d="M31.2568 49.8873C31.2568 49.8873 31.235 49.8043 31.1869 49.6384L30.9598 48.8916C30.7546 48.2234 30.4576 47.2408 30.0646 45.9613V45.9089L30.0253 45.9525L30.0821 45.9875C31.0355 44.0848 31.4993 41.9744 31.4315 39.8473C31.4128 39.1845 31.3398 38.5243 31.2131 37.8734C31.0706 37.1772 30.8765 36.4926 30.6323 35.8252C29.4915 32.7148 27.1842 30.171 24.1995 28.733C22.5274 27.9144 20.6979 27.4675 18.8367 27.4228C16.8578 27.3851 14.8973 27.8098 13.1114 28.6631C11.2313 29.5408 9.59746 30.8701 8.35563 32.5324C8.20278 32.7464 8.04119 32.9691 7.88834 33.17L7.4822 33.8469L7.28132 34.1831L7.111 34.5369C7.00182 34.7727 6.88828 35.0085 6.77473 35.2444C6.66119 35.4802 6.59568 35.7291 6.50397 35.9693C6.40747 36.2086 6.3258 36.4536 6.25942 36.703C6.11675 37.1946 6.00588 37.695 5.92751 38.2009C5.60735 40.1053 5.72572 42.0576 6.27361 43.9094C6.8215 45.7612 7.78447 47.4636 9.0893 48.8872C11.3209 51.3492 14.4208 52.8491 17.7362 53.0709C18.4491 53.1193 19.1646 53.1105 19.8761 53.0447C20.5347 52.9661 21.1881 52.848 21.8326 52.691C23.8894 52.1553 25.7796 51.1134 27.3308 49.6602H27.3046L30.2742 49.8131L31.0297 49.8524H31.2786H31.0166L30.2524 49.8L27.3089 49.6078C25.7595 51.0415 23.8774 52.0666 21.8326 52.5906C21.1907 52.7431 20.5403 52.8569 19.8848 52.9312C19.1798 52.9839 18.4718 52.9839 17.7668 52.9312C16.2215 52.8236 14.7089 52.4343 13.3036 51.7826C10.779 50.6217 8.70636 48.6627 7.40501 46.2076C6.10366 43.7525 5.64587 40.9375 6.10219 38.1965C6.17957 37.698 6.28898 37.2049 6.42973 36.7204C6.4946 36.474 6.57482 36.2319 6.66991 35.9955C6.76162 35.7553 6.83587 35.5108 6.94068 35.2749C7.0455 35.0391 7.15903 34.812 7.27258 34.5806L7.43853 34.2312L7.63941 33.8993L8.04119 33.2311C8.18968 33.0171 8.34689 32.7944 8.50411 32.5979C9.73185 30.9572 11.344 29.6435 13.1988 28.7723C14.9706 27.9289 16.9141 27.5088 18.876 27.5451C20.6469 27.5812 22.3909 27.985 23.9974 28.7308C25.604 29.4765 27.038 30.548 28.2086 31.8773C29.2261 33.0331 30.0238 34.3651 30.5624 35.8077C30.7923 36.4903 30.969 37.1897 31.0909 37.8996C31.2183 38.5447 31.2942 39.1989 31.3179 39.856C31.3945 41.9711 30.9443 44.072 30.0078 45.97L29.903 46.1884L30.0646 46.0093H30.0078C30.4096 47.2714 30.724 48.2453 30.9336 48.9047C31.0385 49.2322 31.1214 49.4812 31.1738 49.6559L31.2568 49.8873Z" fill="#263238"/>
<path d="M15.7643 39.8373C15.7643 40.0365 15.7052 40.2313 15.5945 40.3969C15.4839 40.5625 15.3266 40.6916 15.1426 40.7678C14.9585 40.844 14.756 40.864 14.5607 40.8251C14.3653 40.7863 14.1858 40.6903 14.045 40.5495C13.9041 40.4086 13.8082 40.2292 13.7694 40.0338C13.7305 39.8385 13.7504 39.636 13.8267 39.4519C13.9029 39.2679 14.032 39.1106 14.1976 38.9999C14.3632 38.8893 14.5579 38.8302 14.7571 38.8302C15.0243 38.8302 15.2804 38.9363 15.4693 39.1252C15.6582 39.3141 15.7643 39.5702 15.7643 39.8373Z" fill="#333F47" stroke="#263238" stroke-width="0.222327" stroke-linecap="round" stroke-linejoin="round"/>
<path d="M19.9396 39.8372C19.9396 40.0364 19.8805 40.2311 19.7698 40.3968C19.6592 40.5624 19.5019 40.6915 19.3179 40.7677C19.1338 40.8439 18.9313 40.8639 18.7359 40.825C18.5406 40.7861 18.3611 40.6902 18.2203 40.5494C18.0794 40.4085 17.9835 40.2291 17.9446 40.0337C17.9058 39.8383 17.9257 39.6358 18.002 39.4518C18.0782 39.2678 18.2073 39.1105 18.3729 38.9998C18.5385 38.8891 18.7332 38.8301 18.9324 38.8301C19.1995 38.8301 19.4557 38.9362 19.6446 39.1251C19.8335 39.3139 19.9396 39.5701 19.9396 39.8372Z" fill="#333F47" stroke="#263238" stroke-width="0.222327" stroke-linecap="round" stroke-linejoin="round"/>
<path d="M24.1129 39.8373C24.1129 40.0365 24.0539 40.2313 23.9432 40.3969C23.8325 40.5625 23.6752 40.6916 23.4912 40.7678C23.3072 40.844 23.1047 40.864 22.9093 40.8251C22.7139 40.7863 22.5345 40.6903 22.3936 40.5495C22.2528 40.4086 22.1568 40.2292 22.118 40.0338C22.0791 39.8385 22.0991 39.636 22.1753 39.4519C22.2515 39.2679 22.3806 39.1106 22.5462 38.9999C22.7119 38.8893 22.9066 38.8302 23.1058 38.8302C23.3729 38.8302 23.6291 38.9363 23.8179 39.1252C24.0068 39.3141 24.1129 39.5702 24.1129 39.8373Z" fill="#333F47" stroke="#263238" stroke-width="0.222327" stroke-linecap="round" stroke-linejoin="round"/>
<g clip-path="url(#clip2_5734_10524)">
<path d="M40.4192 115.301C39.3902 119.862 39.0418 124.55 39.3855 129.213C39.6126 132.169 49.5924 213.954 49.5924 213.954H63.084L59.2969 137.086L60.4031 137.323C60.4031 137.323 67.7551 170.108 68.3541 175.416C68.8951 180.189 75.4984 217.688 75.4984 217.688L88.2026 217.558L83.4784 169.151L78.8991 125.165L77.1794 112.359L40.4192 115.301Z" fill="#263238"/>
<path d="M41.9805 128.903C54.3949 133.183 70.7075 135.333 79.0788 127.087L76.364 64.59H44.729L41.9805 128.903Z" fill="#83A3F3"/>
<path d="M65.8669 97.1091C65.9152 97.1622 63.727 99.2104 60.9832 101.684C58.2395 104.157 55.9837 106.128 55.9354 106.075C55.887 106.021 58.0753 103.973 60.819 101.5C63.5627 99.0268 65.8186 97.0559 65.8669 97.1091Z" fill="#263238"/>
<path opacity="0.3" d="M54.1044 131.995C54.1044 131.995 54.9063 79.5112 53.8484 76.9269C52.7905 74.3426 49.0179 131.207 49.3608 131.207L54.1044 131.995Z" fill="black"/>
<path d="M41 77.8448L39.4156 104.311L38.2562 130.879C41.6907 133.502 46.3667 134.869 51.9459 135.313L54.1245 81.5981V61.0105L53.738 60.7496L51.0716 63.049L50.4629 63.1166C50.033 62.2374 49.3616 62.5659 49.3616 62.5659C49.2508 62.3626 49.0655 62.2102 48.8447 62.1408C48.6498 62.1189 48.4526 62.1463 48.2711 62.2206C48.0896 62.2949 47.9297 62.4136 47.8061 62.5659L47.3231 62.0442C46.5261 61.8172 46.0768 62.7978 46.0768 62.7978C39.1064 63.5706 38.1596 67.6669 37.0728 70.2657L41 77.8448Z" fill="#83A3F3"/>
<path d="M42.1174 96.5308L42.6627 82.3917L41.0186 82.3283L38.8546 95.7463L42.1174 96.5308Z" fill="#5C72AA"/>
<path d="M41.7907 77.9871C41.7134 78.2093 41.7907 93.1238 41.7907 93.1238C41.7907 93.1238 42.7778 96.0854 43.4101 97.4183C42.8159 99.6451 41.7339 104.77 38.7921 104.993C34.6668 105.306 31.5898 102.667 31.2607 95.4273C31.338 88.0173 37 70.266 37 70.266L44.096 75.2994L41.7907 77.9871Z" fill="#83A3F3"/>
<path d="M66.8813 60.0201C66.8813 60.0201 69.3449 61.619 70.0598 62.788H71.8423C72.1563 62.7542 72.4896 62.3968 72.8905 62.4112C73.132 62.4112 73.417 62.7832 73.6779 62.8073C73.9387 62.8315 74.0836 62.4306 74.3155 62.4595C74.7985 62.5175 75.185 62.8508 75.7115 62.9812C77.7017 63.4643 79.9189 64.1502 80.9623 64.9134C83.6674 66.8456 84.5755 70.285 84.5755 70.285C84.5755 70.285 77.2766 78.1539 77.7838 78.5258C78.291 78.8978 78.0157 98.6207 78.0157 98.6207C78.0157 98.6207 80.7159 128.676 79.9913 129.642C79.2668 130.608 72.0258 135.019 65.2052 134.632C65.2052 134.632 64.9878 130.821 65.5529 121.846C66.4031 108.349 66.3113 103.49 66.548 98.6594C66.9345 90.8243 66.4804 76.0429 66.548 73.589C66.6157 71.7969 66.7123 60.0829 66.8813 60.0201Z" fill="#83A3F3"/>
<g opacity="0.3">
<path d="M76.962 93.6115C75.7595 95.618 75.2707 97.9723 75.5749 100.292C75.8792 102.611 76.9588 104.76 78.6382 106.388V103.326L77.189 94.3167L76.962 93.6115Z" fill="black"/>
</g>
<path d="M84.5754 70.2568C84.5754 70.2568 87.1259 89.4967 88.4398 91.2695C89.7537 93.0423 89.3286 95.5542 88.9857 97.9936C88.6089 100.665 87.2757 107.007 82.223 106.568C79.5614 106.341 77.9818 104.413 77.0736 101.539C75.4989 96.5541 77.5567 90.6706 77.5567 89.318C77.5567 87.9655 75.953 77.8697 76.1414 77.3432C76.3298 76.8167 84.5754 70.2568 84.5754 70.2568Z" fill="#83A3F3"/>
<g opacity="0.3">
<path d="M43.3564 98.0862C42.5445 98.0048 41.7248 98.1115 40.9608 98.3979C40.1968 98.6844 39.509 99.143 38.9508 99.7381C38.3925 100.333 37.9789 101.049 37.7419 101.83C37.5048 102.61 37.4508 103.435 37.5839 104.24C37.666 104.197 38.1298 104.018 38.1298 104.018L37.9897 106.385C38.9225 106.237 39.8141 105.896 40.6076 105.383C41.4011 104.871 42.079 104.199 42.598 103.409C43.0944 102.627 43.4188 101.747 43.5495 100.829C43.6802 99.9116 43.6144 98.9766 43.3564 98.0862Z" fill="black"/>
</g>
<path d="M83.2564 106.562C82.9846 106.582 82.7118 106.582 82.44 106.562C81.6945 106.499 80.9664 106.303 80.2904 105.982C79.3029 105.457 78.479 104.67 77.909 103.707C76.5891 101.324 76.0406 98.5899 76.3391 95.8819C76.4772 94.7872 76.7632 93.7163 77.1893 92.6986C77.4747 92.0152 77.8378 91.3668 78.2713 90.7664C78.3885 90.599 78.5143 90.4377 78.6481 90.2833C78.735 90.177 78.7882 90.1239 78.793 90.1336C78.2221 90.9581 77.7366 91.8386 77.3438 92.7614C76.9467 93.7725 76.6836 94.8314 76.5613 95.9108C76.2947 98.5654 76.8297 101.239 78.0974 103.587C78.638 104.522 79.4205 105.295 80.3629 105.823C81.0149 106.151 81.7169 106.368 82.44 106.466C82.7145 106.474 82.9876 106.506 83.2564 106.562Z" fill="#263238"/>
<path d="M74.7448 52.7831C74.5875 52.7831 74.4722 50.7121 74.4722 48.1546C74.4722 45.597 74.5875 43.5217 74.7448 43.5217C74.9021 43.5217 75.0175 45.597 75.0175 48.1546C75.0175 50.7121 74.8916 52.7831 74.7448 52.7831Z" fill="#263238"/>
<path d="M42.3146 48.5463C42.3146 48.5463 41.168 29.3567 58.7111 29.3567C76.9753 29.3567 76.0849 49.3718 76.0849 50.924C76.0849 50.924 77.4096 65.5431 59.797 65.8526C41.3113 66.1923 42.3146 48.5463 42.3146 48.5463Z" fill="#B2BECB"/>
<path d="M43.4284 48.1307C43.4284 48.1307 41.8641 33.7193 58.8701 33.715C76.5466 33.715 74.9823 48.7763 74.9823 49.9938C74.9823 49.9938 75.6615 61.1685 59.2075 61.4935C42.7536 61.8184 43.4284 48.1307 43.4284 48.1307Z" fill="#263238"/>
<path d="M78.3838 39.1636H78.1961C76.7421 39.1636 75.5635 40.3298 75.5635 41.7685V51.268C75.5635 52.7066 76.7421 53.8729 78.1961 53.8729H78.3838C79.8378 53.8729 81.0164 52.7066 81.0164 51.268V41.7685C81.0164 40.3298 79.8378 39.1636 78.3838 39.1636Z" fill="#B2BECB"/>
<path d="M75.0045 46.777C74.9905 46.7348 74.9831 46.6907 74.9825 46.6463C74.9825 46.5461 74.9825 46.4155 74.9518 46.2543C74.9123 45.9102 74.9123 45.3832 74.8157 44.756C74.7762 44.4294 74.7279 44.0722 74.6796 43.6759C74.6313 43.2795 74.5215 42.8614 74.4337 42.4084C74.3459 41.9554 74.1966 41.4807 74.0649 40.9711L73.8102 40.2045C73.7663 40.0739 73.718 39.9388 73.6741 39.8038C73.6302 39.6688 73.5643 39.5425 73.5072 39.4075C72.5058 36.8527 70.7699 34.646 68.515 33.0615C65.7153 31.1759 62.419 30.1475 59.0353 30.1041C58.8378 30.1041 58.6358 30.1041 58.4558 30.1041C57.594 30.0878 56.7333 30.1726 55.8916 30.3568C55.0664 30.5196 54.2547 30.7438 53.4635 31.0275C51.966 31.5517 50.5557 32.2945 49.2791 33.2314C48.1281 34.0895 47.1167 35.1178 46.2802 36.2802C45.5543 37.2935 44.9639 38.396 44.5239 39.5599C43.9172 41.2528 43.558 43.0231 43.457 44.817C43.3999 45.4486 43.4131 45.9451 43.4043 46.2805C43.4043 46.4372 43.4043 46.5636 43.4043 46.6594C43.4081 46.7028 43.4081 46.7466 43.4043 46.79C43.3986 46.7467 43.3986 46.7027 43.4043 46.6594C43.4043 46.5636 43.4043 46.4372 43.4043 46.2805C43.4043 45.9451 43.3735 45.4485 43.4043 44.8126C43.4709 43.0031 43.8098 41.2135 44.4098 39.5033C44.8443 38.3219 45.4349 37.203 46.1661 36.1757C47.0068 34.9956 48.0274 33.9523 49.1913 33.0833C50.4648 32.1378 51.8718 31.3835 53.3669 30.8446C54.1683 30.5565 54.9901 30.328 55.8257 30.1608C56.6906 29.9727 57.5749 29.8865 58.4601 29.9038C58.6533 29.9038 58.8509 29.9038 59.0573 29.9038C62.4859 29.9499 65.8247 30.9983 68.6555 32.9178C69.8731 33.7694 70.9424 34.8124 71.8212 36.0058C72.5882 37.0406 73.2114 38.173 73.6741 39.3726L73.8409 39.7777L73.9727 40.1784C74.0605 40.4441 74.1439 40.7054 74.2229 40.958C74.3546 41.4676 74.482 41.9511 74.583 42.4084C74.684 42.8657 74.7366 43.2795 74.8069 43.6889C74.8771 44.0983 74.8903 44.4468 74.9254 44.7734C75.0089 45.4224 74.9957 45.9364 75.0177 46.2761C75.0177 46.4416 75.0177 46.5679 75.0177 46.6681C75.0165 46.7047 75.0121 46.7411 75.0045 46.777Z" fill="#263238"/>
<path d="M46.8164 40.2468C44.9458 43.46 44.6475 47.4538 45.4315 51.0876C49.2665 51.5213 53.1782 49.5916 55.6582 46.5605C58.1381 43.5294 59.2332 38.7551 59.2034 34.8047C52.5944 34.796 48.6742 37.0336 46.8164 40.2468Z" fill="#455A64"/>
<path d="M62.4766 35.3495C65.7465 39.9149 64.5132 48.4244 64.5132 48.4244H67.5531C68.8559 41.1615 66.3589 36.0473 66.3589 36.0473L62.4766 35.3495Z" fill="#455A64"/>
<path d="M68.9624 46.2451C69.2001 46.2451 69.2174 49.5795 68.4741 51.693H70.4359C70.7082 51.693 71.4384 48.4557 71.123 46.2451H68.9624Z" fill="#455A64"/>
<path d="M81.0164 43.2476C80.1128 43.4916 79.2005 43.5729 78.2899 43.4904C77.3794 43.5725 76.4671 43.4913 75.5635 43.2476C76.4674 43.0095 77.3794 42.9283 78.2899 43.0048C79.2005 42.928 80.1125 43.0092 81.0164 43.2476Z" fill="#263238"/>
<path d="M79.3804 46.2451C79.3804 46.4606 79.3164 46.6713 79.1966 46.8504C79.0768 47.0296 78.9064 47.1693 78.7072 47.2517C78.5079 47.3342 78.2886 47.3558 78.077 47.3137C77.8655 47.2717 77.6712 47.1679 77.5187 47.0155C77.3661 46.8632 77.2623 46.669 77.2202 46.4577C77.1781 46.2463 77.1997 46.0272 77.2822 45.8281C77.3648 45.629 77.5046 45.4589 77.6839 45.3391C77.8633 45.2194 78.0741 45.1555 78.2898 45.1555C78.579 45.1555 78.8564 45.2703 79.061 45.4746C79.2655 45.679 79.3804 45.9561 79.3804 46.2451Z" fill="#263238"/>
<path d="M79.3804 50.0589C79.3804 50.2744 79.3164 50.4851 79.1966 50.6643C79.0768 50.8435 78.9064 50.9831 78.7072 51.0656C78.5079 51.148 78.2886 51.1696 78.077 51.1276C77.8655 51.0855 77.6712 50.9818 77.5186 50.8294C77.3661 50.677 77.2623 50.4829 77.2202 50.2715C77.1781 50.0601 77.1997 49.8411 77.2822 49.642C77.3648 49.4429 77.5046 49.2727 77.6839 49.153C77.8633 49.0333 78.0741 48.9694 78.2898 48.9694C78.4332 48.9688 78.5753 48.9965 78.7079 49.0511C78.8405 49.1056 78.9609 49.1859 79.0623 49.2871C79.1637 49.3884 79.244 49.5088 79.2986 49.6413C79.3532 49.7737 79.381 49.9157 79.3804 50.0589Z" fill="#263238"/>
<path d="M40.2129 39.1636H40.0252C38.5712 39.1636 37.3926 40.3298 37.3926 41.7685V51.268C37.3926 52.7066 38.5712 53.8729 40.0252 53.8729H40.2129C41.6669 53.8729 42.8455 52.7066 42.8455 51.268V41.7685C42.8455 40.3298 41.6669 39.1636 40.2129 39.1636Z" fill="#B2BECB"/>
<path d="M42.8455 43.2476C41.9418 43.4909 41.0296 43.5721 40.119 43.4904C39.2085 43.5729 38.2962 43.4916 37.3926 43.2476C38.2965 43.0092 39.2085 42.928 40.119 43.0048C41.0296 42.9287 41.9416 43.01 42.8455 43.2476Z" fill="#263238"/>
<path d="M41.2095 46.245C41.2095 46.4607 41.1454 46.6715 41.0254 46.8508C40.9053 47.0301 40.7347 47.1697 40.5352 47.252C40.3356 47.3344 40.1161 47.3557 39.9045 47.3133C39.6928 47.2709 39.4985 47.1666 39.3461 47.0138C39.1938 46.861 39.0903 46.6664 39.0487 46.4547C39.0072 46.2431 39.0294 46.0238 39.1127 45.8248C39.1959 45.6258 39.3364 45.456 39.5163 45.3368C39.6963 45.2176 39.9076 45.1545 40.1235 45.1554C40.4119 45.1566 40.6882 45.2719 40.8917 45.4761C41.0952 45.6804 41.2095 45.9568 41.2095 46.245Z" fill="#263238"/>
<path d="M41.2095 50.0589C41.2095 50.2746 41.1454 50.4855 41.0254 50.6648C40.9053 50.844 40.7347 50.9837 40.5352 51.066C40.3356 51.1483 40.1161 51.1697 39.9045 51.1272C39.6928 51.0848 39.4985 50.9806 39.3461 50.8278C39.1938 50.6749 39.0903 50.4804 39.0487 50.2687C39.0072 50.057 39.0294 49.8378 39.1127 49.6388C39.1959 49.4398 39.3364 49.2699 39.5163 49.1508C39.6963 49.0316 39.9076 48.9685 40.1235 48.9694C40.2665 48.9694 40.4081 48.9976 40.5401 49.0524C40.6722 49.1072 40.7921 49.1875 40.893 49.2888C40.9939 49.39 41.0738 49.5102 41.1281 49.6423C41.1824 49.7745 41.2101 49.9161 41.2095 50.0589Z" fill="#263238"/>
<path d="M71.6097 62.1272C71.54 62.184 71.4632 62.2334 71.3809 62.2742C71.2225 62.3656 70.9937 62.5006 70.6901 62.6714C70.0874 62.9971 70.425 62.808 69.2767 63.2926C67.9428 63.8622 66.5559 64.3248 65.1322 64.6748C63.3845 65.1044 61.5801 65.3169 59.7689 65.3064C56.477 65.2582 53.2286 64.6196 50.2126 63.4276C49.3036 63.0687 49.2885 63.0992 48.4396 62.6355C48.1316 62.4767 47.9116 62.3337 47.7576 62.2383C47.6744 62.1972 47.5975 62.1464 47.5288 62.0874C47.6159 62.1192 47.6998 62.1578 47.7796 62.2026C47.9424 62.282 48.1712 62.4131 48.4836 62.564C49.347 62.9961 49.3688 62.9427 50.2786 63.2886C53.2866 64.4323 56.5097 65.0445 59.7732 65.0919C61.5763 65.1053 63.3731 64.8982 65.1146 64.4762C66.5292 64.1381 67.9097 63.693 69.2415 63.1456C70.3855 62.6849 69.837 62.8604 70.6549 62.588L71.3633 62.2385C71.4413 62.1943 71.5238 62.1571 71.6097 62.1272Z" fill="#263238"/>
<g opacity="0.3">
<path d="M47.5991 62.1931C49.0894 64.0323 50.5759 65.5116 52.7048 66.5227C54.8337 67.5338 57.1593 68.0512 59.5115 68.0369C61.8637 68.0227 64.183 67.4772 66.2998 66.4404C68.4165 65.4036 69.837 64.4961 71.7455 62.0446C67.9285 64.2237 63.7414 65.2617 59.4764 65.3133C55.2114 65.3649 49.9338 63.4065 47.6826 62.1931" fill="black"/>
</g>
<path d="M15.9673 73.99C15.9673 73.99 13.1849 70.6086 11.3687 72.0143C11.3687 72.0143 13.7259 75.1686 14.523 76.0236C15.32 76.8786 17.3875 77.4728 17.3875 77.4728C17.3875 77.4728 19.4549 79.8639 20.5659 80.1827C21.1552 80.3807 21.793 80.3807 22.3822 80.1827C22.3822 80.1827 22.4112 80.7237 24.1647 80.9749C25.9181 81.2261 30.5603 80.7527 30.5603 80.7527L33.4296 78.3374C33.4296 78.3374 31.9804 75.9222 29.797 75.8739C27.6136 75.8256 25.9761 77.4969 25.9761 77.4969L24.0439 77.4631L22.8653 75.9367C22.8653 75.9367 23.0923 71.9273 20.7012 72.3717C20.7012 72.3717 20.6191 71.0868 19.5998 70.9612C19.3084 70.9359 19.0175 71.0147 18.7787 71.1837C18.5399 71.3526 18.3688 71.6007 18.2956 71.8839C18.2956 71.8839 18.5081 70.3043 17.6483 69.9855C17.5157 69.9129 17.3695 69.8685 17.2189 69.8551C17.0682 69.8418 16.9165 69.8597 16.7731 69.9078C16.6298 69.9558 16.4979 70.0331 16.3859 70.1345C16.2738 70.236 16.1839 70.3596 16.1219 70.4975C15.89 70.9661 15.9673 73.99 15.9673 73.99Z" fill="#FFBF9D"/>
<path d="M22.6045 80.1923C22.3004 79.917 22.0311 79.6056 21.8027 79.2649C21.5756 78.9605 21.3196 78.5982 21.0395 78.1732C20.8798 77.9481 20.7666 77.6936 20.7062 77.4244C20.6464 77.1456 20.6044 76.8632 20.5806 76.5791C20.5122 75.5916 20.5122 74.6006 20.5806 73.6132C20.5817 73.2032 20.6304 72.7947 20.7255 72.3959C20.7741 72.803 20.7855 73.2137 20.7593 73.6228C20.7593 74.3764 20.7593 75.4198 20.8317 76.5549C20.8517 76.8294 20.8905 77.1021 20.9477 77.3713C20.9976 77.6155 21.0961 77.8471 21.2375 78.0524C21.4887 78.4726 21.7206 78.8446 21.9476 79.1586C22.1945 79.4846 22.4142 79.8304 22.6045 80.1923Z" fill="#FF9A6C"/>
<path d="M18.3247 78.4921C18.1207 78.2249 17.9982 77.9045 17.9721 77.5694C17.8473 76.7886 17.81 75.9964 17.861 75.2073C17.8828 74.0917 18.0451 72.9832 18.344 71.9081C18.4116 71.9081 18.2281 73.3959 18.1363 75.217C18.089 75.9928 18.1003 76.7711 18.1701 77.5453C18.2039 78.1346 18.3585 78.4679 18.3247 78.4921Z" fill="#FF9A6C"/>
<path d="M17.5374 77.6564C17.2564 77.4681 17.0083 77.2347 16.8031 76.9657C16.6968 76.8497 16.5857 76.7242 16.4698 76.5792C16.3335 76.4255 16.2227 76.251 16.1413 76.0624C16.0267 75.6233 15.9603 75.173 15.9433 74.7195C15.8805 73.7534 15.8853 72.9177 15.8998 72.3042C15.8855 71.9683 15.9164 71.632 15.9916 71.3043C16.0689 71.3043 16.0785 72.8356 16.1945 74.6857C16.2124 75.1195 16.2673 75.551 16.3587 75.9754C16.4296 76.1485 16.5239 76.311 16.6389 76.4585L16.9384 76.8594C17.1629 77.1055 17.3635 77.3724 17.5374 77.6564Z" fill="#FF9A6C"/>
<path d="M25.977 77.5213C25.8178 77.5513 25.6557 77.5627 25.4939 77.5551H24.0882H24.0496L24.0254 77.5261C23.5355 77.0168 23.1148 76.4451 22.7743 75.8258V75.8017C22.805 75.192 22.753 74.5811 22.6197 73.9854C22.5358 73.6707 22.3914 73.3754 22.1947 73.1159C22.1003 72.9857 21.9806 72.8758 21.8429 72.7928C21.7051 72.7098 21.552 72.6554 21.3928 72.6328C21.1839 72.6078 20.9722 72.6242 20.7697 72.6811L20.6199 72.715V72.5652C20.6137 72.2664 20.5323 71.974 20.3832 71.715C20.2339 71.4823 20.0059 71.3109 19.7408 71.232C19.6195 71.1923 19.4905 71.1821 19.3644 71.2022C19.2384 71.2224 19.119 71.2723 19.0162 71.3479C18.8033 71.4825 18.626 71.6664 18.4993 71.8841L18.3206 72.1981V71.8406C18.357 71.3501 18.2351 70.8608 17.9728 70.4446C17.8426 70.3141 17.6828 70.217 17.5071 70.1615C17.3313 70.106 17.1447 70.0937 16.9632 70.1258C16.7211 70.1609 16.4954 70.2687 16.3159 70.435C16.1952 70.5509 16.1517 70.633 16.1372 70.6282C16.1593 70.5368 16.2061 70.4532 16.2725 70.3867C16.4465 70.1895 16.6809 70.0553 16.9391 70.005C17.1436 69.9583 17.3565 69.963 17.5588 70.0186C17.7611 70.0743 17.9465 70.1791 18.0984 70.3239C18.4059 70.7625 18.5589 71.291 18.5331 71.8261L18.3351 71.7827C18.4736 71.5287 18.6727 71.313 18.9147 71.1547C19.0461 71.0594 19.198 70.9962 19.3583 70.9702C19.5185 70.9442 19.6826 70.9561 19.8374 71.005C20.1572 71.1052 20.4311 71.3158 20.6103 71.5991C20.7837 71.8924 20.88 72.2247 20.8904 72.5652L20.7359 72.4541C20.9702 72.3907 21.2142 72.3711 21.4556 72.3962C21.6487 72.4221 21.8343 72.4878 22.0006 72.5893C22.1669 72.6907 22.3103 72.8257 22.4217 72.9855C22.6457 73.272 22.81 73.6005 22.9048 73.9516C23.0413 74.5696 23.0885 75.204 23.0448 75.8355V75.7872C23.3685 76.3974 23.7642 76.9667 24.2235 77.4827L24.1607 77.4537L25.5664 77.5117C25.7032 77.502 25.8407 77.5053 25.977 77.5213Z" fill="#FF9A6C"/>
<path d="M30.9905 75.9955C30.1974 75.8409 29.3808 75.8539 28.593 76.0336C27.8052 76.2133 27.0637 76.5557 26.416 77.0388C26.416 77.0388 26.5658 76.7925 26.9329 76.5171C27.4146 76.1658 27.9629 75.9164 28.5443 75.7844C29.1258 75.6523 29.728 75.6403 30.3142 75.7491C30.5559 75.7767 30.7877 75.8611 30.9905 75.9955Z" fill="#FF9A6C"/>
<path d="M98.9268 72.5799C98.6579 72.4765 98.3601 72.4765 98.0912 72.5799C96.8239 72.9752 95.6307 73.5775 94.5601 74.3623L95.4923 77.5746C95.8546 76.879 97.5405 75.9709 98.1298 75.454C98.7713 74.9902 99.2118 74.2992 99.3616 73.5218C99.3862 73.3397 99.3584 73.1544 99.2814 72.9876C99.2044 72.8207 99.0814 72.6793 98.9268 72.5799Z" fill="#FF9A6C"/>
<path d="M88.5512 81.3372C88.5222 81.3082 88.8314 80.9507 89.2323 80.3083C89.4686 79.9388 89.6615 79.5433 89.8071 79.1296C89.8924 78.8911 89.9476 78.6428 89.9714 78.3906C89.9714 78.1152 90.0148 77.8302 90.0342 77.5404C90.1259 76.3811 90.2226 75.3329 90.3047 74.5745C90.3254 74.1605 90.3869 73.7495 90.4882 73.3475C90.5292 73.7603 90.5292 74.1762 90.4882 74.589C90.4496 75.3522 90.382 76.4052 90.2902 77.5646C90.266 77.8544 90.2467 78.1394 90.2226 78.4147C90.1918 78.687 90.1285 78.9546 90.0342 79.2118C89.8679 79.6359 89.6505 80.0382 89.3869 80.4097C89.165 80.7656 88.8821 81.0796 88.5512 81.3372Z" fill="#FF9A6C"/>
<path d="M92.9611 73.3142C93.0413 73.7149 93.0785 74.1229 93.0722 74.5315C93.1108 75.2802 93.1446 76.3188 93.1688 77.4636C93.1688 77.7486 93.1688 78.0288 93.1688 78.2993C93.1888 78.5686 93.1774 78.8393 93.135 79.106C93.0154 79.5424 92.8262 79.9567 92.5746 80.3329C92.3789 80.6933 92.126 81.0196 91.8259 81.299C91.7969 81.299 92.0626 80.8933 92.4249 80.2412C92.64 79.871 92.8026 79.4727 92.9079 79.0577C92.9351 78.8088 92.9351 78.5578 92.9079 78.309C92.9079 78.0384 92.9079 77.7583 92.9079 77.4733C92.8838 76.3236 92.8789 75.2851 92.9079 74.5315C92.8828 74.125 92.9006 73.717 92.9611 73.3142Z" fill="#FF9A6C"/>
<path d="M95.9321 76.9515C95.9659 76.9515 96.0915 77.1641 96.106 77.565C96.1093 77.8015 96.0717 78.0369 95.9949 78.2606C95.8887 78.5195 95.7628 78.7698 95.6181 79.0093C95.2844 79.6366 94.8559 80.2085 94.3477 80.7048C94.6459 80.0672 94.9982 79.4564 95.4007 78.8789C95.539 78.6508 95.6648 78.4154 95.7775 78.1737C95.8581 77.9762 95.9086 77.7678 95.9272 77.5554C95.961 77.1931 95.9031 76.9612 95.9321 76.9515Z" fill="#FF9A6C"/>
<path d="M28.068 81.1976C28.5547 81.7929 28.9103 82.4842 29.1114 83.2264C29.2757 84.1587 31.3625 96.2688 31.9083 97.9546C32.5846 100.061 33.9903 104.345 39.584 102.737C43.4484 101.626 43.5885 95.7278 40.9558 92.4962C38.3232 89.2645 33.9371 79.99 33.6183 78.7872C33.2995 77.5844 30.1645 73.9567 26.5464 72.9906C22.9284 72.0245 21.1169 72.0245 19.7837 70.2662C18.4505 68.5079 16.8226 67.6528 16.0546 68.9716C15.2865 70.2903 19.7837 74.232 19.7837 74.232L26.0634 80.2653L28.068 81.1976Z" fill="#FFBF9D"/>
<path d="M40.4204 74.8628C40.4819 75.2352 40.8146 75.0844 40.8982 75.3936C41.0914 76.0264 41.6058 76.8473 41.9102 77.8424V77.8379C42.0118 79.3032 41.8375 81.0309 41.8568 82.9147C41.8568 85.2527 41.8955 87.3685 41.91 88.9674C41.91 89.7064 41.91 90.3247 41.91 90.803C41.9246 91.0286 41.9165 91.2552 41.8858 91.4792C41.8409 91.2582 41.8166 91.0334 41.8134 90.8078C41.7844 90.3731 41.7506 89.7499 41.7216 88.9722C41.6636 87.4216 41.6153 85.2817 41.596 82.9147C41.596 81.0212 41.5783 79.3015 41.5783 77.8959L41.5783 77.8669L40.5308 75.3936C40.4416 75.0885 40.4598 75.1782 40.4204 74.8628Z" fill="#263238"/>
<path d="M84.7801 87.8989C84.655 88.141 83.4542 88.4262 83.29 88.6438L81.4278 89.4467V89.3887C81.4278 90.9103 82.4215 93.5306 82.3152 95.7382C82.1896 98.1534 82.0785 100.303 81.9916 101.936C81.9578 102.694 81.924 103.322 81.9047 103.815C81.9032 104.046 81.8838 104.277 81.8467 104.506C81.8079 104.277 81.7933 104.046 81.8032 103.815C81.8032 103.37 81.8032 102.723 81.8032 101.931C81.8322 100.342 64.8353 110.618 65.7851 108.384C68.0199 105.404 77.3308 89.016 84.4077 87.8987C85.1853 87.8987 83.6002 88.164 83.6002 88.164C84.0352 87.8989 84.5684 88.0896 84.7801 87.8989Z" fill="#263238"/>
<path d="M79.8131 75.0579C79.6879 75.3 79.5425 75.531 79.3783 75.7486L78.1224 77.5794V77.5214C78.1224 79.043 78.0693 81.0622 77.963 83.2697C77.8374 85.685 77.7263 87.8346 77.6394 89.4673C77.6055 90.2257 77.5717 90.8536 77.5524 91.3463C77.5509 91.5777 77.5315 91.8087 77.4944 92.0371C77.4556 91.809 77.2835 91.5775 77.2933 91.3463C77.2933 90.9019 77.2934 90.2595 77.2934 89.4673C77.3224 87.878 77.3737 85.6946 77.4944 83.2697C77.6007 81.067 77.6658 78.9606 78.0324 77.5214L78.0382 77.4708L79.2479 75.6955C79.4118 75.4624 79.6014 75.2486 79.8131 75.0579Z" fill="#263238"/>
<path d="M83.2564 106.562C82.9846 106.582 82.7118 106.582 82.44 106.562C81.6945 106.499 80.9664 106.303 80.2904 105.982C79.3029 105.457 78.479 104.67 77.909 103.707C76.5891 101.324 76.0406 98.5899 76.3391 95.8819C76.4772 94.7872 76.7632 93.7163 77.1893 92.6986C77.4747 92.0152 77.8378 91.3668 78.2713 90.7664C78.3885 90.599 78.5143 90.4377 78.6481 90.2833C78.735 90.177 78.7882 90.1239 78.793 90.1336C78.2221 90.9581 77.7366 91.8386 77.3438 92.7614C76.9467 93.7725 76.6836 94.8314 76.5613 95.9108C76.2947 98.5654 76.8297 101.239 78.0974 103.587C78.638 104.522 79.4205 105.295 80.3629 105.823C81.0149 106.151 81.7169 106.368 82.44 106.466C82.7145 106.474 82.9876 106.506 83.2564 106.562Z" fill="#263238"/>
<path d="M41.786 90.5778L39.6067 90.5778L38.4884 88.8121L41.7191 88.8124L41.786 90.5778Z" fill="#B4FF15"/>
<path d="M41.7062 88.8407L38.5051 88.8407C38.5051 88.8407 37.0676 86.4091 37.0387 86.0182C37.0097 85.6273 41.6544 86.0181 41.6544 86.0181L41.7062 88.8407Z" fill="white"/>
<path d="M41.6427 86.0367L37.0188 86.0367L36.2468 84.5468L41.6117 84.547L41.6427 86.0367Z" fill="#B4FF15"/>
<path d="M32.9063 79.9616L40.8038 94.7693L42.12 93.7821L34.6729 79.5594L32.9063 79.9616Z" fill="#5C72AA" fill-opacity="0.84"/>
<path d="M31.5893 98.3889C31.5893 98.3889 27.6406 85.2265 27.6406 82.923C27.6406 80.6196 34.2218 79.6324 34.2218 79.6324L42.4483 94.7692C42.4483 94.7692 43.5519 97.3364 43.4355 99.047C43.2911 101.169 42.8184 102.686 41.1321 103.983C39.4737 105.258 37.1834 105.299 35.8671 104.641C34.5509 103.983 31.5893 98.3889 31.5893 98.3889Z" fill="#83A3F3"/>
<path d="M77.6643 78.2175L41.9091 77.8425L40.7917 75.2353L79.5268 75.2352L77.6643 78.2175Z" fill="#B4FF15"/>
<path d="M77.5068 82.6845L41.858 82.6845L41.9101 78.5877L41.9101 77.8428L41.738 77.4703L78.0381 77.4702L77.6656 80.0774L77.5068 82.6845Z" fill="white"/>
<path d="M77.419 84.9182L41.8719 84.9182L41.8521 82.6839L77.5385 82.6839L77.419 84.9182Z" fill="#B4FF15"/>
<path d="M79.4627 90.5061L77.6005 90.5061L77.6652 88.6439L81.9128 88.6441L79.4627 90.5061Z" fill="#B4FF15"/>
<path d="M81.9231 88.6435L77.6656 88.6435L77.8225 86.036L86.9768 86.0363L87.3492 87.1536L83.6248 87.7655L81.9231 88.6435Z" fill="white"/>
<path d="M86.9768 86.0366L77.816 86.0366L77.8163 84.5469L86.6046 84.547L86.9768 86.0366Z" fill="#B4FF15"/>
<path d="M41.7905 93.1239C42.4486 94.4401 44.0939 97.4017 43.1068 101.021" stroke="black" stroke-width="0.131624" stroke-linecap="round"/>
<path d="M35.709 82.8746C35.7656 82.8776 35.8218 82.8876 35.8766 82.9042L35.9103 82.9128L35.8827 82.9324C34.7191 83.658 33.5051 84.2908 32.2501 84.826C31.1666 85.2873 30.1604 85.6456 29.4249 85.8727C29.0571 85.9863 28.7574 86.0715 28.5481 86.1235C28.4412 86.1575 28.3314 86.1812 28.2199 86.1944C28.322 86.1487 28.4272 86.1108 28.5347 86.081L29.4019 85.7959C30.1291 85.5501 31.1317 85.1949 32.2084 84.7214C34.0093 83.9484 35.4495 83.126 35.8741 82.9025L35.8797 82.9285C35.8212 82.9179 35.7639 82.8998 35.709 82.8746Z" fill="#263238"/>
<circle cx="33.5644" cy="82.2648" r="0.65812" fill="white"/>
</g>
<path d="M77.2055 93.8675C81.6999 88.3941 85.5884 87.6172 85.5884 87.6172L85.5612 107.137L71.2271 125.266L65.4003 110.346C65.4003 110.346 74.16 97.5734 77.2055 93.8675Z" fill="#83A3F3"/>
<path d="M91.9539 86.0709L85.5288 87.6247C85.5288 87.6247 82.2114 106.865 83.4156 111.841C84.4372 116.075 87.7236 135.615 87.7236 135.615H127.346L114.065 97.4915C114.065 97.4915 113.987 89.1086 116.038 85.2357C114.795 84.9366 110.6 84.1636 106.976 83.4838C106.976 83.4838 104.567 86.4904 98.8956 87.3683C93.2241 88.2462 91.9539 86.0709 91.9539 86.0709Z" fill="#83A3F3"/>
<path d="M114.277 84.8973C114.277 84.8973 123.397 85.5555 127.675 101.021C129.649 107.602 131.079 116.137 131.623 121.752C132.012 125.761 133.598 129.649 128.991 132.611L119.448 134.256C116.321 134.303 114.008 130.782 113.352 128.059L112.288 123.739C111.534 118.448 115.562 117.99 117.827 118.037L112.847 98.3418L111.88 88.8091L114.277 84.8973Z" fill="#83A3F3"/>
<path d="M114.112 95.8254C114.135 95.6881 114.143 95.5488 114.136 95.4098C114.136 95.1417 114.155 94.7572 114.186 94.2832C114.357 91.8096 115.035 89.3976 116.179 87.1978C116.396 86.7782 116.587 86.4403 116.723 86.2111C116.801 86.0973 116.867 85.9748 116.917 85.8459C116.825 85.9495 116.743 86.0613 116.672 86.18C116.521 86.4014 116.319 86.7316 116.086 87.1473C114.877 89.3441 114.191 91.79 114.081 94.2949C114.062 94.7727 114.062 95.1573 114.081 95.4253C114.08 95.5593 114.091 95.6931 114.112 95.8254Z" fill="#263238"/>
<g opacity="0.3">
<path d="M83.2391 111.259C80.8229 107.168 80.8301 101.836 82.9355 97.5823C83.0723 97.5823 83.6245 97.5823 83.6245 97.5823C83.6245 97.5823 82.8979 97.8383 82.8817 97.9547C82.2637 102.372 82.3729 106.881 83.3091 111.243" fill="black"/>
</g>
<path d="M103.324 132.282C103.324 132.282 103.672 132.471 104.427 132.75C105.525 133.126 106.784 133.396 108.126 133.543C110.114 133.765 112.168 133.847 114.213 133.785C116.518 133.71 119.064 133.588 121.676 133.413C124.165 133.272 126.618 133.023 128.999 132.669C128.999 132.669 129.76 132.497 129.649 132.614C129.597 132.669 129.115 132.765 129.115 132.765C126.718 133.138 124.242 133.399 121.726 133.543C119.064 133.721 116.518 133.837 114.196 133.915C112.12 133.971 110.037 133.878 108.026 133.64C106.667 133.479 105.4 133.19 104.311 132.791C104.008 132.68 103.731 132.555 103.482 132.419C103.418 132.376 103.365 132.33 103.324 132.282Z" fill="#263238"/>
<path d="M101.44 130.573C101.452 130.496 101.452 130.417 101.44 130.34C101.443 130.249 101.436 130.158 101.421 130.068C101.412 129.947 101.391 129.827 101.359 129.71C101.171 129.031 100.843 128.399 100.395 127.854C99.9614 127.305 99.4748 126.8 98.9427 126.346C98.7345 126.146 98.5053 125.969 98.259 125.818C98.4543 126.029 98.6605 126.23 98.8766 126.42C99.3835 126.89 99.8536 127.398 100.283 127.939C100.719 128.47 101.051 129.079 101.262 129.734C101.44 130.239 101.417 130.573 101.44 130.573Z" fill="#FF9A6C"/>
<path d="M91.927 124.901C92.2663 124.973 92.6194 124.942 92.9408 124.812C93.2764 124.723 93.5771 124.535 93.8032 124.272C93.7799 124.237 93.4148 124.509 92.8981 124.68C92.3815 124.851 91.927 124.878 91.927 124.901Z" fill="#FF9A6C"/>
<path d="M90.9516 128.836C91.4709 128.698 91.9776 128.516 92.4666 128.293C92.9707 128.11 93.4581 127.883 93.9233 127.617C93.4039 127.751 92.8981 127.933 92.4122 128.16C91.9075 128.345 91.419 128.571 90.9516 128.836Z" fill="#FF9A6C"/>
<path d="M94.1262 130.849C94.3949 130.787 94.6556 130.695 94.9031 130.573C95.1665 130.497 95.4195 130.388 95.6567 130.251C95.3779 130.257 95.1036 130.323 94.8526 130.445C94.5838 130.525 94.3358 130.663 94.1262 130.849Z" fill="#FF9A6C"/>
<path d="M91.4296 129.1C91.6448 129.247 91.8417 129.419 92.0164 129.613C92.1557 129.832 92.2691 130.067 92.3546 130.313C92.3546 130.313 92.3896 130.219 92.3546 130.068C92.3196 129.871 92.2383 129.686 92.1173 129.527C91.9963 129.368 91.8391 129.24 91.6589 129.154C91.5306 129.092 91.4334 129.084 91.4296 129.1Z" fill="#FF9A6C"/>
<path d="M90.0351 126.902C90.0157 126.941 90.2761 127.081 90.4471 127.38C90.5333 127.573 90.606 127.772 90.6648 127.975C90.7053 127.865 90.7176 127.746 90.7006 127.63C90.6836 127.514 90.6379 127.404 90.5676 127.31C90.3694 126.968 90.0429 126.867 90.0351 126.902Z" fill="#FF9A6C"/>
<path d="M90.5087 122.979C90.5087 122.979 90.5786 122.92 90.6214 122.792C90.6653 122.62 90.6653 122.44 90.6214 122.268C90.58 122.095 90.4928 121.937 90.3689 121.809C90.2756 121.712 90.198 121.677 90.1863 121.693C90.3109 121.883 90.4113 122.088 90.4854 122.303C90.5216 122.526 90.5294 122.753 90.5087 122.979Z" fill="#FF9A6C"/>
<path d="M105.954 104.193C106.122 104.193 106.286 104.143 106.425 104.05C106.564 103.957 106.673 103.825 106.737 103.67C106.801 103.515 106.818 103.345 106.785 103.181C106.752 103.017 106.672 102.866 106.553 102.747C106.435 102.629 106.284 102.548 106.12 102.515C105.955 102.483 105.785 102.5 105.63 102.564C105.476 102.628 105.343 102.736 105.25 102.876C105.157 103.015 105.108 103.178 105.108 103.346C105.109 103.57 105.198 103.785 105.357 103.944C105.515 104.102 105.73 104.192 105.954 104.193ZM105.954 102.519C106.118 102.519 106.278 102.567 106.414 102.658C106.55 102.749 106.656 102.878 106.719 103.029C106.781 103.181 106.798 103.347 106.766 103.507C106.734 103.668 106.655 103.815 106.539 103.931C106.424 104.047 106.276 104.126 106.116 104.157C105.955 104.189 105.789 104.173 105.638 104.11C105.487 104.048 105.357 103.942 105.266 103.806C105.176 103.67 105.127 103.51 105.127 103.346C105.127 103.127 105.214 102.916 105.369 102.761C105.525 102.606 105.735 102.519 105.954 102.519Z" fill="#263238"/>
<g opacity="0.3">
<path d="M119.61 121.423H117.145C117.307 116.518 115.977 108.251 115.102 103.422C116.711 110.49 117.734 114.422 119.61 121.423Z" fill="black"/>
</g>
<path d="M115.418 105.404L82.5074 105.404C82.5074 105.404 82.4081 101.803 82.4315 100.904C82.455 100.005 82.7896 99.9106 82.7896 99.9106L114.166 99.8173L115.418 105.404Z" fill="white"/>
<path d="M115.945 107.453L82.6914 107.453L82.5555 105.175L115.421 105.321L115.945 107.453Z" fill="#B4FF15"/>
<path d="M114.226 100.202L82.5078 100.19C82.5078 100.19 82.6314 99.3228 82.7107 98.7672C82.7374 98.5796 82.7642 98.3917 82.7884 98.2226C82.8407 97.8554 83.1552 97.5828 83.5261 97.5829L113.851 97.5939L114.226 100.202Z" fill="#B4FF15"/>
<path d="M82.7474 98.2377C82.7276 98.309 82.7133 98.3817 82.7047 98.4552L82.6115 99.0806C82.6115 99.2166 82.5687 99.3681 82.5454 99.5312C82.5221 99.6944 82.5105 99.8808 82.491 100.075C82.4522 100.464 82.4017 100.902 82.3823 101.396C82.3149 102.544 82.3071 103.696 82.359 104.845C82.4322 106.253 82.5774 107.656 82.794 109.048C83.0116 110.528 83.2835 111.931 83.5709 113.201C83.8584 114.471 84.1226 115.602 84.3479 116.557C84.5732 117.513 84.7868 118.274 84.9305 118.803C85.0005 119.059 85.0587 119.261 85.1015 119.412C85.1155 119.485 85.1391 119.556 85.1714 119.622C85.1615 119.549 85.1472 119.476 85.1287 119.405L84.9888 118.791L84.4489 116.53C84.2274 115.575 83.9594 114.44 83.6953 113.17C83.4311 111.9 83.1553 110.505 82.9416 109.025C82.728 107.545 82.5532 106.131 82.5105 104.838C82.4677 103.544 82.4444 102.379 82.5105 101.4C82.5105 100.91 82.561 100.467 82.592 100.083C82.592 99.8886 82.6231 99.6944 82.6348 99.539C82.6464 99.3836 82.6736 99.2243 82.6892 99.0884C82.7163 98.8281 82.7396 98.6183 82.7552 98.4591C82.7604 98.3852 82.7578 98.311 82.7474 98.2377Z" fill="#263238"/>
<path d="M114.368 100.767C114.406 100.767 115.296 104.212 116.355 108.482C117.415 112.752 119.815 121.815 119.777 121.822C119.739 121.829 117.287 112.787 116.224 108.514C115.161 104.24 114.333 100.791 114.368 100.767Z" fill="#263238"/>
<path d="M78.4815 115.54L76.8689 114.609L77.2999 113.192L79.5301 114.714L78.4815 115.54Z" fill="#B4FF15"/>
<path d="M70.157 109.498L66.867 108.011L68.3568 105.776L81.02 112.853L79.9026 114.343L79.5301 114.715L70.157 109.498Z" fill="white"/>
<path d="M81.0194 112.852L68.3562 105.776L69.4733 104.286L82.1368 111.363L81.0194 112.852Z" fill="#B4FF15"/>
<path d="M130.417 113.061L117.517 113.061L117.144 111.736L130.181 111.736L130.417 113.061Z" fill="#B4FF15"/>
<path d="M119.252 111.737L117.145 111.736L116.532 109.129L129.675 109.129L130.179 111.737L119.252 111.737Z" fill="white"/>
<path d="M129.675 109.128L116.542 109.128L116.06 107.266L129.32 107.266L129.675 109.128Z" fill="#B4FF15"/>
<path d="M39.6982 108.707L45.191 135.685H92.8935C93.1459 135.685 93.388 135.585 93.5665 135.407C93.7449 135.228 93.8452 134.986 93.8452 134.734C93.8457 134.608 93.8215 134.484 93.7738 134.369C93.7262 134.253 93.6561 134.148 93.5676 134.059C93.4791 133.971 93.374 133.901 93.2583 133.853C93.1426 133.806 93.0186 133.781 92.8935 133.782H83.2908L78.1943 108.688C78.1478 108.454 78.0223 108.244 77.8391 108.093C77.6558 107.942 77.4259 107.858 77.1882 107.856L40.7276 107.468C40.5735 107.467 40.421 107.5 40.2812 107.565C40.1415 107.63 40.0179 107.725 39.9194 107.844C39.8209 107.962 39.75 108.101 39.7117 108.25C39.6735 108.4 39.6688 108.556 39.6982 108.707Z" fill="#E0E0E0"/>
<path d="M39.6993 108.706C39.6977 108.679 39.6977 108.652 39.6993 108.625C39.6889 108.543 39.6889 108.461 39.6993 108.38C39.7181 108.22 39.7734 108.067 39.861 107.932C39.9486 107.798 40.0661 107.685 40.2043 107.603C40.3012 107.544 40.4077 107.502 40.519 107.479C40.6468 107.454 40.7775 107.446 40.9074 107.455H41.7659L43.9141 107.475L57.6965 107.607L67.307 107.7L72.691 107.758L75.5151 107.786H76.9601C77.0805 107.786 77.1971 107.786 77.3291 107.786C77.5216 107.809 77.7047 107.881 77.8607 107.996C78.0166 108.111 78.14 108.265 78.2187 108.442C78.2667 108.561 78.3006 108.685 78.3197 108.811L78.3935 109.172C78.444 109.413 78.4906 109.658 78.5411 109.903C78.6421 110.388 78.7392 110.882 78.8402 111.375C79.0422 112.362 79.2455 113.363 79.4501 114.378C79.8619 116.403 80.284 118.475 80.7165 120.593C81.575 124.823 82.4684 129.221 83.393 133.754L83.3269 133.703H92.7354C92.8652 133.696 92.9954 133.702 93.1238 133.723C93.3779 133.778 93.6015 133.928 93.7492 134.142C93.8297 134.261 93.8846 134.394 93.9104 134.535C93.9362 134.675 93.9323 134.82 93.8991 134.959C93.8658 135.098 93.8038 135.228 93.7171 135.342C93.6304 135.455 93.521 135.55 93.3957 135.619C93.2576 135.691 93.105 135.733 92.949 135.739H67.6061H45.2076H45.1688V135.7C43.4868 127.407 42.1233 120.659 41.1754 115.986L40.0645 110.59C39.9402 109.977 39.8469 109.506 39.7848 109.184C39.7226 108.862 39.6954 108.706 39.6954 108.706L39.8003 109.184L40.0917 110.586C40.348 111.822 40.721 113.636 41.2026 115.97C42.1621 120.632 43.5334 127.387 45.2387 135.677L45.1882 135.634H67.5866H92.9257C93.0613 135.628 93.1939 135.592 93.3141 135.529C93.4236 135.47 93.5193 135.388 93.595 135.289C93.6707 135.19 93.7248 135.076 93.7537 134.955C93.7827 134.833 93.7858 134.707 93.763 134.585C93.7401 134.462 93.6917 134.346 93.621 134.243C93.4924 134.058 93.2979 133.929 93.0772 133.882C92.9632 133.862 92.8471 133.855 92.7315 133.863H83.2337V133.812L80.5611 120.647C80.1338 118.534 79.7143 116.462 79.3025 114.432C79.0979 113.417 78.8946 112.416 78.6926 111.429C78.5955 110.936 78.4945 110.443 78.3974 109.957C78.3469 109.712 78.2964 109.468 78.2498 109.227L78.176 108.866C78.1565 108.747 78.1252 108.632 78.0828 108.52C77.9896 108.305 77.823 108.13 77.6127 108.026C77.5092 107.976 77.3973 107.944 77.2825 107.933C77.1738 107.933 77.0456 107.933 76.9252 107.933H75.484L72.6599 107.902L67.2565 107.786L57.646 107.673L43.8636 107.502L41.7154 107.475H40.8569C40.7336 107.469 40.61 107.476 40.4879 107.494C40.38 107.518 40.2765 107.559 40.181 107.615C40.0427 107.697 39.9253 107.809 39.8377 107.944C39.7501 108.079 39.6948 108.232 39.676 108.392C39.6711 108.497 39.679 108.603 39.6993 108.706Z" fill="#263238"/>
<path d="M61.6771 121.052C61.6817 121.365 61.593 121.672 61.4224 121.935C61.2518 122.197 61.0069 122.403 60.7189 122.526C60.4309 122.649 60.1129 122.683 59.8053 122.624C59.4978 122.566 59.2146 122.417 58.9919 122.197C58.7691 121.977 58.6169 121.696 58.5545 121.389C58.4922 121.082 58.5226 120.764 58.6419 120.474C58.7611 120.185 58.9638 119.937 59.2242 119.764C59.4845 119.59 59.7907 119.497 60.1038 119.498C60.5177 119.498 60.915 119.661 61.2095 119.952C61.504 120.243 61.672 120.638 61.6771 121.052Z" fill="white"/>
<path d="M39.7419 108.924H42.2435L49.0648 108.959L71.5643 109.118L74.8195 109.145H75.6198C75.7563 109.141 75.8929 109.15 76.0276 109.173C76.1656 109.2 76.2974 109.253 76.4161 109.328C76.6539 109.478 76.8261 109.713 76.8978 109.984C76.9599 110.249 77.0027 110.497 77.057 110.761C77.4455 112.793 77.834 114.755 78.2224 116.623L80.1647 126.548C80.7163 129.368 81.1669 131.656 81.4777 133.241C81.6253 134.018 81.7457 134.64 81.8273 135.059C81.8623 135.265 81.8933 135.424 81.9128 135.533C81.9322 135.642 81.9399 135.696 81.9399 135.696C81.9399 135.696 81.94 135.642 81.9011 135.537L81.8001 135.067C81.7146 134.648 81.5865 134.034 81.4116 133.249C81.0892 131.668 80.6347 129.384 80.0559 126.564C79.4771 123.744 78.8167 120.38 78.067 116.646C77.6786 114.778 77.2901 112.82 76.9017 110.789C76.8512 110.536 76.8007 110.272 76.7463 110.012C76.698 109.831 76.5994 109.667 76.4618 109.54C76.3243 109.413 76.1536 109.327 75.9694 109.293C75.8409 109.273 75.7108 109.265 75.5809 109.27H74.7807L71.5254 109.246L49.026 109.048L42.2047 108.974L40.3517 108.947H39.8662L39.7419 108.924Z" fill="#263238"/>
<path d="M100.771 126.359C100.743 126.246 100.727 126.13 100.723 126.013C100.69 125.695 100.683 125.375 100.703 125.056C100.737 124.583 100.888 124.126 101.141 123.732C101.286 123.494 101.454 123.272 101.643 123.07C101.852 122.859 102.086 122.676 102.339 122.526C103.228 122.031 104.176 121.809 105.173 121.665C105.281 121.648 108.383 121.438 109.906 121.423C112.621 121.397 114.648 121.428 114.842 121.423C114.952 121.404 120.325 121.443 120.436 121.462C120.436 121.478 109.883 121.665 109.883 121.665C109.883 121.665 105.709 121.771 105.458 121.819C104.485 121.997 103.311 122.175 102.435 122.653C102.192 122.795 101.968 122.969 101.768 123.171C101.585 123.364 101.421 123.574 101.278 123.8C101.03 124.175 100.875 124.61 100.828 125.065C100.8 125.377 100.791 125.691 100.8 126.005C100.803 126.124 100.794 126.243 100.771 126.359Z" fill="#263238"/>
<path d="M85.2869 129.378C86.0444 127.941 91.9839 124.149 91.9839 124.149L90.3757 123.761L88.6005 124.515C88.4628 125.118 88.1979 125.685 87.8236 126.177C87.1709 127.106 86.0638 126.142 86.0638 126.142L86.8136 122.549L90.3097 120.436C90.3097 120.436 93.6116 120.941 94.1476 121.193L95.5538 122.483C96.1715 122.969 97.9584 124.88 98.444 124.938C98.5495 124.951 99.686 124.755 100.885 124.507C102.987 126.17 102.991 129.897 103.325 132.282L98.9528 132.187L94.9673 133.286C93.8999 133.728 92.8063 134.105 91.6926 134.412C90.3641 134.692 89.4706 134.265 89.4357 133.531C89.4007 132.796 90.4301 132.715 90.4301 132.715C91.3095 132.399 92.1661 132.022 92.9939 131.588C93.5973 131.184 94.0933 130.639 94.439 130L93.0172 130.171C93.0172 130.171 89.995 132.268 88.8607 132.89C87.7264 133.511 87.5011 132.377 87.4079 132.031C87.3147 131.686 90.8341 128.287 90.8341 128.287C90.8341 128.287 87.5206 130.33 86.9223 130.846C86.3241 131.363 85.4423 131.515 85.252 131.169C85.0616 130.823 84.5411 130.815 85.2869 129.378Z" fill="#FFBF9D"/>
<path d="M103.134 131.931C103.116 131.788 103.106 131.85 103.108 131.706C103.108 131.566 103.108 131.399 103.089 131.201C103.069 131.003 103.069 130.777 103.042 130.533C102.931 129.245 102.654 127.978 102.218 126.761C101.973 126.091 101.675 125.442 101.329 124.818L101.214 124.507C101.214 124.507 101.365 124.655 101.469 124.756C101.827 125.377 102.132 126.027 102.382 126.699C102.819 127.927 103.081 129.211 103.159 130.513C103.182 130.762 103.178 130.987 103.186 131.185C103.193 131.383 103.188 131.348 103.188 131.488C103.186 131.637 103.167 131.786 103.134 131.931Z" fill="#263238"/>
<path d="M113.528 79.2941C113.371 79.2941 113.256 77.2231 113.256 74.6656C113.256 72.108 113.371 70.0327 113.528 70.0327C113.686 70.0327 113.801 72.108 113.801 74.6656C113.801 77.2231 113.675 79.2941 113.528 79.2941Z" fill="#263238"/>
<path d="M81.0983 75.0573C81.0983 75.0573 79.9517 55.8677 97.4948 55.8677C115.759 55.8677 114.869 75.8828 114.869 77.435C114.869 77.435 116.193 92.0541 98.5807 92.3636C80.095 92.7033 81.0983 75.0573 81.0983 75.0573Z" fill="#B2BECB"/>
<path d="M82.2106 74.6415C82.2106 74.6415 80.6463 60.2302 97.6524 60.2258C115.329 60.2258 113.764 75.2871 113.764 76.5047C113.764 76.5047 114.444 87.6794 97.9898 88.0043C81.5358 88.3293 82.2106 74.6415 82.2106 74.6415Z" fill="#263238"/>
<path d="M117.167 65.6744H116.979C115.525 65.6744 114.346 66.8407 114.346 68.2793V77.7788C114.346 79.2175 115.525 80.3837 116.979 80.3837H117.167C118.62 80.3837 119.799 79.2175 119.799 77.7788V68.2793C119.799 66.8407 118.62 65.6744 117.167 65.6744Z" fill="#B2BECB"/>
<path d="M113.787 73.288C113.773 73.2458 113.765 73.2017 113.765 73.1573C113.765 73.0571 113.765 72.9265 113.734 72.7653C113.695 72.4212 113.695 71.8942 113.598 71.267C113.558 70.9404 113.51 70.5832 113.462 70.1868C113.413 69.7905 113.304 69.3724 113.216 68.9194C113.128 68.4664 112.979 67.9917 112.847 67.4821L112.592 66.7155C112.549 66.5849 112.5 66.4498 112.456 66.3148C112.412 66.1798 112.347 66.0535 112.289 65.9185C111.288 63.3637 109.552 61.157 107.297 59.5725C104.498 57.6869 101.201 56.6585 97.8176 56.6151C97.62 56.6151 97.418 56.6151 97.238 56.6151C96.3762 56.5988 95.5155 56.6836 94.6738 56.8677C93.8486 57.0306 93.037 57.2548 92.2457 57.5385C90.7482 58.0627 89.3379 58.8055 88.0613 59.7424C86.9104 60.6005 85.899 61.6287 85.0625 62.7912C84.3365 63.8045 83.7461 64.9069 83.3062 66.0709C82.6995 67.7638 82.3402 69.5341 82.2392 71.328C82.1821 71.9595 82.1953 72.4561 82.1865 72.7914C82.1865 72.9482 82.1865 73.0745 82.1865 73.1704C82.1904 73.2138 82.1904 73.2576 82.1865 73.301C82.1808 73.2577 82.1808 73.2137 82.1865 73.1704C82.1865 73.0745 82.1865 72.9482 82.1865 72.7914C82.1865 72.4561 82.1558 71.9595 82.1865 71.3236C82.2531 69.514 82.592 67.7245 83.192 66.0143C83.6265 64.8329 84.2171 63.714 84.9483 62.6867C85.789 61.5065 86.8096 60.4633 87.9735 59.5943C89.2471 58.6488 90.654 57.8945 92.1491 57.3556C92.9505 57.0675 93.7724 56.8389 94.6079 56.6717C95.4728 56.4837 96.3571 56.3974 97.2424 56.4148C97.4356 56.4148 97.6332 56.4148 97.8395 56.4148C101.268 56.4609 104.607 57.5093 107.438 59.4288C108.655 60.2803 109.725 61.3234 110.603 62.5168C111.37 63.5516 111.994 64.684 112.456 65.8836L112.623 66.2887L112.755 66.6894C112.843 66.9551 112.926 67.2164 113.005 67.469C113.137 67.9786 113.264 68.4621 113.365 68.9194C113.466 69.3767 113.519 69.7905 113.589 70.1999C113.659 70.6093 113.673 70.9578 113.708 71.2844C113.791 71.9334 113.778 72.4474 113.8 72.7871C113.8 72.9526 113.8 73.0789 113.8 73.1791C113.799 73.2157 113.794 73.2521 113.787 73.288Z" fill="#263238"/>
<path d="M85.5991 66.7578C83.7285 69.971 83.4302 73.9648 84.2142 77.5986C88.0492 78.0323 91.9609 76.1026 94.4409 73.0715C96.9208 70.0404 98.0159 65.2661 97.9861 61.3157C91.3772 61.307 87.4569 63.5446 85.5991 66.7578Z" fill="#455A64"/>
<path d="M101.259 61.8606C104.529 66.426 103.296 74.9355 103.296 74.9355H106.336C107.639 67.6726 105.142 62.5584 105.142 62.5584L101.259 61.8606Z" fill="#455A64"/>
<path d="M107.746 72.7561C107.983 72.7561 108.001 76.0905 107.257 78.204H109.219C109.491 78.204 110.222 74.9667 109.906 72.7561H107.746Z" fill="#455A64"/>
<path d="M119.799 69.7585C118.895 70.0025 117.983 70.0837 117.073 70.0013C116.162 70.0834 115.25 70.0022 114.346 69.7585C115.25 69.5204 116.162 69.4392 117.073 69.5157C117.983 69.4389 118.895 69.5201 119.799 69.7585Z" fill="#263238"/>
<path d="M118.164 72.7561C118.164 72.9716 118.1 73.1822 117.98 73.3614C117.86 73.5406 117.69 73.6802 117.49 73.7627C117.291 73.8452 117.072 73.8668 116.86 73.8247C116.649 73.7827 116.454 73.6789 116.302 73.5265C116.149 73.3741 116.045 73.18 116.003 72.9686C115.961 72.7573 115.983 72.5382 116.065 72.3391C116.148 72.14 116.288 71.9699 116.467 71.8501C116.646 71.7304 116.857 71.6665 117.073 71.6665C117.362 71.6665 117.64 71.7813 117.844 71.9856C118.049 72.19 118.164 72.4671 118.164 72.7561Z" fill="#263238"/>
<path d="M118.164 76.5699C118.164 76.7854 118.1 76.9961 117.98 77.1753C117.86 77.3544 117.69 77.4941 117.49 77.5766C117.291 77.659 117.072 77.6806 116.86 77.6386C116.649 77.5965 116.454 77.4927 116.302 77.3404C116.149 77.188 116.045 76.9938 116.003 76.7825C115.961 76.5711 115.983 76.3521 116.065 76.153C116.148 75.9539 116.288 75.7837 116.467 75.664C116.646 75.5443 116.857 75.4804 117.073 75.4804C117.216 75.4798 117.358 75.5075 117.491 75.5621C117.624 75.6166 117.744 75.6968 117.846 75.7981C117.947 75.8994 118.027 76.0198 118.082 76.1523C118.136 76.2847 118.164 76.4267 118.164 76.5699Z" fill="#263238"/>
<path d="M78.9956 65.6744H78.8079C77.3539 65.6744 76.1753 66.8407 76.1753 68.2793V77.7788C76.1753 79.2175 77.3539 80.3837 78.8079 80.3837H78.9956C80.4496 80.3837 81.6282 79.2175 81.6282 77.7788V68.2793C81.6282 66.8407 80.4496 65.6744 78.9956 65.6744Z" fill="#B2BECB"/>
<path d="M81.6282 69.7585C80.7246 70.0017 79.8123 70.083 78.9018 70.0013C77.9912 70.0837 77.0789 70.0025 76.1753 69.7585C77.0792 69.5201 77.9912 69.4389 78.9018 69.5157C79.8123 69.4396 80.7243 69.5208 81.6282 69.7585Z" fill="#263238"/>
<path d="M79.9927 72.7557C79.9927 72.9714 79.9286 73.1823 79.8086 73.3615C79.6885 73.5408 79.5179 73.6805 79.3184 73.7628C79.1188 73.8451 78.8993 73.8664 78.6877 73.824C78.476 73.7816 78.2817 73.6774 78.1293 73.5245C77.977 73.3717 77.8735 73.1771 77.8319 72.9655C77.7904 72.7538 77.8126 72.5346 77.8959 72.3356C77.9791 72.1366 78.1196 71.9667 78.2996 71.8475C78.4795 71.7284 78.6908 71.6652 78.9067 71.6661C79.1951 71.6674 79.4714 71.7827 79.6749 71.9869C79.8784 72.1911 79.9927 72.4675 79.9927 72.7557Z" fill="#263238"/>
<path d="M79.9927 76.5699C79.9927 76.7856 79.9286 76.9965 79.8086 77.1757C79.6885 77.355 79.5179 77.4947 79.3184 77.577C79.1188 77.6593 78.8993 77.6806 78.6877 77.6382C78.476 77.5958 78.2817 77.4916 78.1293 77.3387C77.977 77.1859 77.8735 76.9913 77.8319 76.7797C77.7904 76.568 77.8126 76.3488 77.8959 76.1498C77.9791 75.9508 78.1196 75.7809 78.2995 75.6618C78.4795 75.5426 78.6908 75.4795 78.9067 75.4804C79.0497 75.4804 79.1913 75.5086 79.3233 75.5634C79.4554 75.6182 79.5753 75.6985 79.6762 75.7998C79.7771 75.901 79.857 76.0211 79.9113 76.1533C79.9656 76.2855 79.9933 76.4271 79.9927 76.5699Z" fill="#263238"/>
<g opacity="0.3">
<path d="M86.3823 88.7041C87.8726 90.5433 89.3591 92.0226 91.488 93.0337C93.6169 94.0448 95.9425 94.5622 98.2947 94.5479C100.647 94.5337 102.966 93.9882 105.083 92.9514C107.2 91.9146 108.62 91.0071 110.529 88.5555C106.712 90.7347 102.525 91.7727 98.2596 91.8243C93.9946 91.8758 88.717 89.9175 86.4658 88.7041" fill="black"/>
</g>
<path d="M110.392 88.6382C110.323 88.695 110.246 88.7443 110.164 88.7852C110.005 88.8765 109.776 89.0116 109.473 89.1824C108.87 89.5081 109.208 89.319 108.059 89.8036C106.726 90.3732 105.339 90.8358 103.915 91.1858C102.167 91.6154 100.363 91.8279 98.5516 91.8174C95.2597 91.7692 92.0113 91.1306 88.9953 89.9386C88.0863 89.5796 88.0712 89.6102 87.2223 89.1465C86.9143 88.9876 86.6943 88.8447 86.5403 88.7493C86.4571 88.7082 86.3802 88.6574 86.3115 88.5984C86.3986 88.6302 86.4825 88.6687 86.5623 88.7136C86.7251 88.793 86.9539 88.9241 87.2663 89.075C88.1297 89.507 88.1515 89.4537 89.0613 89.7996C92.0693 90.9433 95.2925 91.5555 98.556 91.6029C100.359 91.6163 102.156 91.4092 103.897 90.9872C105.312 90.6491 106.692 90.204 108.024 89.6566C109.168 89.1958 108.62 89.3714 109.438 89.099L110.146 88.7494C110.224 88.7053 110.306 88.6681 110.392 88.6382Z" fill="#263238"/>
<path d="M125.478 122.682C125.478 122.682 125.432 122.623 125.333 122.534C125.189 122.412 125.037 122.3 124.878 122.199C124.353 121.869 123.776 121.629 123.172 121.49C122.568 121.351 121.945 121.309 121.327 121.367C121.071 121.379 120.818 121.428 120.577 121.514C120.58 121.568 121.744 121.305 123.138 121.633C123.728 121.771 124.295 121.991 124.822 122.289C125.232 122.524 125.462 122.702 125.478 122.682Z" fill="#263238"/>
<path d="M125.324 119.225C125.077 119.189 124.826 119.193 124.581 119.239C123.983 119.317 123.403 119.498 122.868 119.774C122.332 120.05 121.846 120.414 121.431 120.852C121.25 121.023 121.099 121.224 120.983 121.445C121.001 121.459 121.176 121.238 121.505 120.923C121.931 120.519 122.413 120.177 122.935 119.906C123.459 119.638 124.02 119.448 124.599 119.342C125.04 119.259 125.322 119.25 125.324 119.225Z" fill="#263238"/>
<path d="M105.682 122.09C105.7 122.013 105.727 121.939 105.76 121.869L105.779 121.825L105.793 121.87C106.268 123.709 106.628 125.587 106.87 127.489C107.077 129.131 107.193 130.633 107.24 131.719C107.264 132.263 107.275 132.703 107.274 133.008C107.282 133.166 107.278 133.325 107.262 133.483C107.24 133.327 107.227 133.17 107.224 133.013L107.15 131.726C107.08 130.645 106.966 129.149 106.744 127.512C106.391 124.781 105.886 122.529 105.758 121.872L105.788 121.872C105.76 121.95 105.724 122.023 105.682 122.09Z" fill="#263238"/>
<ellipse cx="0.756647" cy="0.744132" rx="0.756647" ry="0.744132" transform="matrix(0.233196 -0.97243 0.970639 0.240543 103.325 125.198)" fill="white"/>
</g>
<defs>
<clipPath id="clip0_5734_10524">
<rect width="154" height="135.573" fill="white"/>
</clipPath>
<clipPath id="clip1_5734_10524">
<rect width="37.9119" height="35.1037" fill="white" transform="translate(118.461 39.4872)"/>
</clipPath>
<clipPath id="clip2_5734_10524">
<rect width="88.6436" height="107.266" fill="white" transform="translate(11.3687 28.3064)"/>
</clipPath>
</defs>
</svg>
